<svg xmlns="http://www.w3.org/2000/svg" viewBox="0 0 960 540" width="960" height="540" role="img">
  <defs>
    <linearGradient id="bg" x1="0" y1="0" x2="1" y2="1">
      <stop offset="0%" stop-color="#f8f8f8"/>
      <stop offset="100%" stop-color="#efefef"/>
    </linearGradient>
    <filter id="shadow" x="-10%" y="-10%" width="120%" height="120%">
      <feDropShadow dx="0" dy="2" stdDeviation="6" flood-opacity="0.08"/>
    </filter>
  </defs>
  <rect width="960" height="540" fill="url(#bg)" rx="16"/>
  
  
  <rect x="40" y="120" width="160" height="100" rx="12" fill="#fff" stroke="#ddd" filter="url(#shadow)"/>
  <text x="60" y="152" fill="#222" font-family="system-ui,sans-serif" font-size="14" font-weight="600">Crawl</text>
  <text x="60" y="178" fill="#666" font-family="system-ui,sans-serif" font-size="13">13 repos</text>
  <g transform="translate(210,166)"><path d="M0 0 L50 0" stroke="#666" stroke-width="2"/><polygon points="50,0 42,-4 42,4" fill="#666"/></g>
  
  <rect x="260" y="120" width="160" height="100" rx="12" fill="#fff" stroke="#ddd" filter="url(#shadow)"/>
  <text x="280" y="152" fill="#222" font-family="system-ui,sans-serif" font-size="14" font-weight="600">Dedupe</text>
  <text x="280" y="178" fill="#666" font-family="system-ui,sans-serif" font-size="13">Hash match</text>
  <g transform="translate(430,166)"><path d="M0 0 L50 0" stroke="#666" stroke-width="2"/><polygon points="50,0 42,-4 42,4" fill="#666"/></g>
  
  <rect x="480" y="120" width="160" height="100" rx="12" fill="#fff" stroke="#ddd" filter="url(#shadow)"/>
  <text x="500" y="152" fill="#222" font-family="system-ui,sans-serif" font-size="14" font-weight="600">Describe</text>
  <text x="500" y="178" fill="#666" font-family="system-ui,sans-serif" font-size="13">Azure GPT</text>
  <g transform="translate(650,166)"><path d="M0 0 L50 0" stroke="#666" stroke-width="2"/><polygon points="50,0 42,-4 42,4" fill="#666"/></g>
  
  <rect x="700" y="120" width="160" height="100" rx="12" fill="#fff" stroke="#ddd" filter="url(#shadow)"/>
  <text x="720" y="152" fill="#111" font-family="system-ui,sans-serif" font-size="14" font-weight="600">Index</text>
  <text x="720" y="178" fill="#666" font-family="system-ui,sans-serif" font-size="13">Semantic search</text>
  
  <rect x="40" y="280" width="820" height="180" rx="12" fill="#fff" stroke="#ddd" filter="url(#shadow)"/>
  <text x="60" y="312" fill="#111" font-family="system-ui,sans-serif" font-size="14" font-weight="600">Gallery UI</text>
  <text x="60" y="338" fill="#666" font-family="system-ui,sans-serif" font-size="13">Filters / provenance / duplicate badges / audit CSV export</text>
</svg>