<svg xmlns="http://www.w3.org/2000/svg" viewBox="0 0 960 540" width="960" height="540" role="img">
  <defs>
    <linearGradient id="bg" x1="0" y1="0" x2="1" y2="1">
      <stop offset="0%" stop-color="#f8f8f8"/>
      <stop offset="100%" stop-color="#efefef"/>
    </linearGradient>
    <filter id="shadow" x="-10%" y="-10%" width="120%" height="120%">
      <feDropShadow dx="0" dy="2" stdDeviation="6" flood-opacity="0.08"/>
    </filter>
  </defs>
  <rect width="960" height="540" fill="url(#bg)" rx="16"/>
  
  <text x="40" y="44" fill="#111" font-family="system-ui,sans-serif" font-size="18" font-weight="700">Global rules</text>
  
  <rect x="40" y="80" width="860" height="90" rx="12" fill="#fff" stroke="#ddd" filter="url(#shadow)"/>
  <text x="60" y="112" fill="#111" font-family="system-ui,sans-serif" font-size="14" font-weight="600">action-groups.json</text>
  <text x="60" y="138" fill="#666" font-family="system-ui,sans-serif" font-size="13">Primary right / destructive left</text>
  
  <rect x="40" y="190" width="860" height="90" rx="12" fill="#fff" stroke="#ddd" filter="url(#shadow)"/>
  <text x="60" y="222" fill="#222" font-family="system-ui,sans-serif" font-size="14" font-weight="600">figma-interpretation.json</text>
  <text x="60" y="248" fill="#666" font-family="system-ui,sans-serif" font-size="13">storybook-is-skeleton (blocker)</text>
  
  <rect x="40" y="300" width="860" height="90" rx="12" fill="#fff" stroke="#ddd" filter="url(#shadow)"/>
  <text x="60" y="332" fill="#222" font-family="system-ui,sans-serif" font-size="14" font-weight="600">component-usage.json</text>
  <text x="60" y="358" fill="#666" font-family="system-ui,sans-serif" font-size="13">No hand-rolled primitives when export exists</text>
  <rect x="60" y="110" width="72" height="22" rx="11" fill="#fecaca"/><text x="72" y="125" fill="#991b1b" font-family="system-ui,sans-serif" font-size="11" font-weight="600">BLOCKER</text>
  <rect x="60" y="220" width="72" height="22" rx="11" fill="#fecaca"/><text x="72" y="235" fill="#991b1b" font-family="system-ui,sans-serif" font-size="11" font-weight="600">BLOCKER</text>
  <rect x="60" y="330" width="72" height="22" rx="11" fill="#fde68a"/><text x="72" y="345" fill="#92400e" font-family="system-ui,sans-serif" font-size="11" font-weight="600">ADVISORY</text>
</svg>