<svg xmlns="http://www.w3.org/2000/svg" viewBox="0 0 960 540" width="960" height="540" role="img">
  <defs>
    <linearGradient id="bg" x1="0" y1="0" x2="1" y2="1">
      <stop offset="0%" stop-color="#f8f8f8"/>
      <stop offset="100%" stop-color="#efefef"/>
    </linearGradient>
    <filter id="shadow" x="-10%" y="-10%" width="120%" height="120%">
      <feDropShadow dx="0" dy="2" stdDeviation="6" flood-opacity="0.08"/>
    </filter>
  </defs>
  <rect width="960" height="540" fill="url(#bg)" rx="16"/>
  
  <text x="40" y="44" fill="#111" font-family="system-ui,sans-serif" font-size="18" font-weight="700">Starter + Cursor rules</text>
  
  <rect x="40" y="80" width="220" height="140" rx="12" fill="#fff" stroke="#ddd" filter="url(#shadow)"/>
  <text x="60" y="112" fill="#222" font-family="system-ui,sans-serif" font-size="14" font-weight="600">Cursor rules</text>
  <text x="60" y="138" fill="#666" font-family="system-ui,sans-serif" font-size="13">.mdc guardrails</text>
  <text x="60" y="160" fill="#666" font-family="system-ui,sans-serif" font-size="13">Pattern names</text>
  <g transform="translate(270,146)"><path d="M0 0 L50 0" stroke="#666" stroke-width="2"/><polygon points="50,0 42,-4 42,4" fill="#666"/></g>
  
  <rect x="340" y="80" width="220" height="140" rx="12" fill="#fff" stroke="#ddd" filter="url(#shadow)"/>
  <text x="360" y="112" fill="#222" font-family="system-ui,sans-serif" font-size="14" font-weight="600">Starter kit</text>
  <text x="360" y="138" fill="#666" font-family="system-ui,sans-serif" font-size="13">README runbook</text>
  <text x="360" y="160" fill="#666" font-family="system-ui,sans-serif" font-size="13">Token wiring</text>
  <g transform="translate(570,146)"><path d="M0 0 L50 0" stroke="#666" stroke-width="2"/><polygon points="50,0 42,-4 42,4" fill="#666"/></g>
  
  <rect x="640" y="80" width="280" height="140" rx="12" fill="#fff" stroke="#ddd" filter="url(#shadow)"/>
  <text x="660" y="112" fill="#222" font-family="system-ui,sans-serif" font-size="14" font-weight="600">New internal app</text>
  <text x="660" y="138" fill="#666" font-family="system-ui,sans-serif" font-size="13">Approved layouts</text>
  <text x="660" y="160" fill="#666" font-family="system-ui,sans-serif" font-size="13">No forked nav</text>
  
  <rect x="40" y="280" width="880" height="200" rx="12" fill="#fff" stroke="#ddd" filter="url(#shadow)"/>
  <text x="60" y="312" fill="#111" font-family="system-ui,sans-serif" font-size="14" font-weight="600">Outcome</text>
  <text x="60" y="338" fill="#666" font-family="system-ui,sans-serif" font-size="13">Agent-assisted PRs cite the same patterns as humans</text>
  <text x="60" y="360" fill="#666" font-family="system-ui,sans-serif" font-size="13">Fewer one-off components in review</text>
</svg>