<svg xmlns="http://www.w3.org/2000/svg" viewBox="0 0 960 540" width="960" height="540" role="img">
  <defs>
    <linearGradient id="bg" x1="0" y1="0" x2="1" y2="1">
      <stop offset="0%" stop-color="#f8f8f8"/>
      <stop offset="100%" stop-color="#efefef"/>
    </linearGradient>
    <filter id="shadow" x="-10%" y="-10%" width="120%" height="120%">
      <feDropShadow dx="0" dy="2" stdDeviation="6" flood-opacity="0.08"/>
    </filter>
  </defs>
  <rect width="960" height="540" fill="url(#bg)" rx="16"/>
  
  <text x="40" y="44" fill="#111" font-family="system-ui,sans-serif" font-size="18" font-weight="700">resolve_from_figma</text>
  
  <rect x="40" y="90" width="180" height="120" rx="12" fill="#fff" stroke="#ddd" filter="url(#shadow)"/>
  <text x="60" y="122" fill="#222" font-family="system-ui,sans-serif" font-size="14" font-weight="600">Figma frame</text>
  <text x="60" y="148" fill="#666" font-family="system-ui,sans-serif" font-size="13">Keywords + copy</text>
  <g transform="translate(230,146)"><path d="M0 0 L50 0" stroke="#666" stroke-width="2"/><polygon points="50,0 42,-4 42,4" fill="#666"/></g>
  
  <rect x="300" y="90" width="200" height="120" rx="12" fill="#fff" stroke="#ddd" filter="url(#shadow)"/>
  <text x="320" y="122" fill="#222" font-family="system-ui,sans-serif" font-size="14" font-weight="600">MCP resolve</text>
  <text x="320" y="148" fill="#666" font-family="system-ui,sans-serif" font-size="13">Pattern match</text>
  <text x="320" y="170" fill="#666" font-family="system-ui,sans-serif" font-size="13">Story ID</text>
  <g transform="translate(510,146)"><path d="M0 0 L50 0" stroke="#666" stroke-width="2"/><polygon points="50,0 42,-4 42,4" fill="#666"/></g>
  
  <rect x="580" y="90" width="200" height="120" rx="12" fill="#fff" stroke="#ddd" filter="url(#shadow)"/>
  <text x="600" y="122" fill="#222" font-family="system-ui,sans-serif" font-size="14" font-weight="600">Storybook CSF</text>
  <text x="600" y="148" fill="#666" font-family="system-ui,sans-serif" font-size="13">Skeleton chrome</text>
  
  <rect x="40" y="260" width="880" height="220" rx="12" fill="#fff" stroke="#ddd" filter="url(#shadow)"/>
  <text x="60" y="292" fill="#111" font-family="system-ui,sans-serif" font-size="14" font-weight="600">18 tools / one registry spine</text>
  <text x="60" y="318" fill="#666" font-family="system-ui,sans-serif" font-size="13">get_components / get_global_rules / token inventory / composition patterns</text>
</svg>